<?xml version="1.0" standalone="no"?>
<!DOCTYPE svg PUBLIC "-//W3C//DTD SVG 20010904//EN"
 "http://www.w3.org/TR/2001/REC-SVG-20010904/DTD/svg10.dtd">
<svg version="1.0" xmlns="http://www.w3.org/2000/svg"
 width="512.000000pt" height="512.000000pt" viewBox="0 0 512.000000 512.000000"
 preserveAspectRatio="xMidYMid meet">

<g transform="translate(0.000000,512.000000) scale(0.100000,-0.100000)"
fill="#000000" stroke="none">
<path d="M2484 5060 c-220 -33 -398 -198 -450 -416 -12 -51 -14 -93 -10 -161
l6 -92 -449 -1 c-483 -1 -496 -2 -585 -54 -61 -36 -131 -117 -158 -184 l-23
-57 -3 -747 c-3 -740 -3 -747 18 -768 24 -24 63 -26 81 -3 12 13 15 151 19
767 l5 751 27 47 c16 25 45 60 65 78 67 54 106 60 414 60 l278 0 -24 -49 c-14
-27 -28 -69 -31 -94 l-6 -45 -132 -4 c-116 -3 -137 -6 -186 -29 -120 -57 -200
-164 -220 -295 -7 -47 -10 -549 -8 -1589 l3 -1520 24 -60 c33 -83 133 -183
216 -216 l60 -24 1145 0 1145 0 60 24 c83 33 183 133 216 216 l24 60 3 1520
c2 1040 -1 1542 -8 1589 -20 131 -101 239 -218 294 -51 24 -72 27 -188 30
l-132 4 -6 45 c-3 25 -17 67 -31 94 l-25 50 298 -3 297 -3 55 -30 c60 -33 114
-96 130 -153 6 -25 10 -640 10 -1877 l0 -1840 -24 -50 c-29 -60 -76 -107 -136
-134 -45 -20 -58 -21 -1470 -21 -1412 0 -1425 1 -1470 21 -60 27 -107 74 -136
134 l-24 50 0 895 c0 492 -4 900 -8 906 -24 36 -81 33 -102 -5 -7 -15 -10
-282 -8 -918 l3 -898 23 -57 c45 -110 124 -186 236 -225 48 -17 131 -18 1486
-18 1355 0 1438 1 1486 18 112 39 191 115 236 225 l23 57 3 1834 c1 1211 -1
1853 -8 1890 -26 141 -128 255 -266 297 -36 11 -144 14 -495 14 l-449 1 6 92
c14 206 -76 385 -250 499 -100 65 -245 96 -362 78z m197 -126 c30 -9 73 -27
95 -40 59 -35 141 -125 169 -186 45 -99 51 -229 16 -321 -6 -16 -11 -38 -11
-50 0 -47 13 -52 137 -57 98 -5 125 -10 158 -28 76 -43 112 -134 86 -215 -15
-45 -78 -102 -128 -116 -54 -15 -1234 -15 -1288 0 -61 17 -121 83 -130 143
-10 66 7 116 54 159 50 45 93 57 208 57 124 0 143 20 109 116 -34 99 -24 229
24 324 27 53 102 135 155 168 93 59 237 78 346 46z m-970 -1004 c39 -59 102
-104 173 -125 74 -22 1278 -22 1352 0 71 21 134 66 174 126 l34 51 121 -4
c108 -3 126 -6 179 -32 60 -30 109 -84 133 -149 15 -43 18 -3083 3 -3139 -15
-53 -68 -118 -125 -153 l-48 -30 -1146 0 c-1077 0 -1148 1 -1178 18 -52 28
-102 77 -126 121 l-22 41 -3 1545 c-2 1146 0 1555 9 1585 16 55 62 119 105
145 58 37 113 49 225 49 l106 1 34 -50z"/>
<path d="M1396 3394 c-19 -18 -21 -65 -4 -82 7 -7 40 -12 80 -12 l68 0 0 -272
c0 -303 3 -321 56 -326 57 -6 58 3 64 312 l5 281 65 3 c52 2 69 7 83 23 22 27
22 44 -3 69 -19 19 -33 20 -209 20 -159 0 -192 -3 -205 -16z"/>
<path d="M2045 3401 c-168 -44 -282 -238 -245 -417 24 -114 91 -209 182 -255
59 -30 160 -37 227 -14 68 22 148 96 186 172 28 53 30 67 30 163 0 93 -3 112
-26 161 -55 116 -152 187 -266 194 -32 2 -71 1 -88 -4z m162 -134 c100 -52
143 -220 85 -333 -37 -71 -113 -124 -180 -124 -71 0 -161 72 -191 153 -14 37
-14 130 1 178 12 42 67 112 101 131 53 29 122 27 184 -5z"/>
<path d="M2612 3385 l-32 -27 0 -304 0 -305 26 -26 c24 -24 29 -25 127 -21 80
3 111 9 144 26 66 34 110 78 140 140 26 54 28 65 28 187 0 117 -2 135 -24 179
-55 112 -144 166 -286 174 -87 4 -92 3 -123 -23z m219 -111 c41 -20 87 -79
100 -126 16 -62 7 -186 -18 -234 -30 -59 -87 -94 -161 -101 l-62 -6 0 240 c0
132 3 243 7 247 10 10 102 -3 134 -20z"/>
<path d="M3345 3397 c-66 -22 -99 -43 -144 -92 -160 -174 -113 -472 91 -576
59 -30 160 -37 227 -14 68 22 152 99 188 173 25 51 28 67 28 162 0 93 -3 112
-26 161 -36 75 -89 133 -154 165 -64 31 -152 40 -210 21z m195 -146 c57 -46
85 -112 85 -201 -1 -110 -48 -187 -137 -224 -49 -21 -84 -20 -134 3 -151 69
-181 297 -56 415 64 60 172 63 242 7z"/>
<path d="M1557 2282 c-20 -22 -22 -63 -5 -80 17 -17 64 -15 82 4 21 21 20 57
-2 77 -24 22 -55 21 -75 -1z"/>
<path d="M1877 2282 c-19 -21 -21 -45 -7 -73 10 -19 30 -19 848 -19 639 0 841
3 850 12 18 18 14 63 -6 81 -17 16 -90 17 -844 17 -786 0 -826 -1 -841 -18z"/>
<path d="M1557 1782 c-20 -22 -22 -63 -5 -80 17 -17 64 -15 82 4 21 21 20 57
-2 77 -24 22 -55 21 -75 -1z"/>
<path d="M1877 1782 c-19 -21 -21 -45 -7 -73 10 -19 30 -19 848 -19 639 0 841
3 850 12 18 18 14 63 -6 81 -17 16 -90 17 -844 17 -786 0 -826 -1 -841 -18z"/>
<path d="M1557 1282 c-20 -22 -22 -63 -5 -80 17 -17 64 -15 82 4 23 22 20 60
-6 78 -29 21 -51 20 -71 -2z"/>
<path d="M1877 1282 c-19 -21 -21 -45 -7 -73 10 -19 30 -19 848 -19 639 0 841
3 850 12 18 18 14 63 -6 81 -17 16 -90 17 -844 17 -786 0 -826 -1 -841 -18z"/>
<path d="M1557 782 c-20 -22 -22 -63 -5 -80 17 -17 64 -15 82 4 21 21 20 57
-2 77 -24 22 -55 21 -75 -1z"/>
<path d="M1877 782 c-19 -21 -21 -45 -7 -73 10 -19 30 -19 848 -19 639 0 841
3 850 12 18 18 14 63 -6 81 -17 16 -90 17 -844 17 -786 0 -826 -1 -841 -18z"/>
<path d="M826 2458 c-24 -34 -21 -133 4 -158 11 -11 29 -20 40 -20 39 0 60 35
60 98 0 70 -19 102 -60 102 -18 0 -34 -8 -44 -22z"/>
</g>
</svg>
